# xmcd CD database file
#
# Track frame offsets:
#	150
#	16532
#	33785
#	55785
#	74180
#	92597
#	115732
#	126630
#	147502
#	163087
#	200307
#
# Disc length: 2801 seconds
#
# Revision: 0
# Processed by: cddbd v1.5PL3 Copyright (c) Steve Scherf et al.
# Submitted via: CDex 1.50beta8
#
DISCID=980aef0b
DTITLE=甲斐バンド - ガラスの動物園
DYEAR=1900
DGENRE=Rock
TTITLE0=らせん階段
TTITLE1=黒い夏
TTITLE2=新宿
TTITLE3=テレフォン・ノイローゼ
TTITLE4=東京の一夜
TTITLE5=昨日鳴る鐘の音
TTITLE6=やせた女のブルース
TTITLE7=男と女のいる舗道
TTITLE8=あの日からの便り
TTITLE9=悪いうわさ
TTITLE10=ゆきずりの風
EXTD=
EXTT0=
EXTT1=
EXTT2=
EXTT3=
EXTT4=
EXTT5=
EXTT6=
EXTT7=
EXTT8=
EXTT9=
EXTT10=
PLAYORDER=
